<?xml version="1.0" encoding="utf-8"?><!-- Generator: Adobe Illustrator 26.3.1, SVG Export Plug-In . SVG Version: 6.00 Build 0)  --><svg version="1.1" id="Calque_2_00000072997452760239052360000008930554263621029548_" xmlns="http://www.w3.org/2000/svg" xmlns:xlink="http://www.w3.org/1999/xlink" x="0px" y="0px" viewBox="0 0 1108.6 643.2" style="enable-background:new 0 0 1108.6 643.2;" xml:space="preserve"><style type="text/css">
	.st0{fill:#034F6D;}
	.st1{fill:#C69B6B;}
	.st2{fill:#020000;}
	.st3{fill:#97BF0D;}
	.st4{fill:#E4D6C5;}
	.st5{fill:#EAC28D;}
	.st6{fill:#CCA47F;}
	.st7{fill:#EAC28D;stroke:#FFFFFF;stroke-width:0.6;stroke-miterlimit:10;}
	.st8{fill:#FFFFFF;}
	.st9{fill:#84763A;}
	.st10{fill:#EDCB9E;}
	.st11{fill:#AD815C;}
	.st12{fill:#2B1910;}
	.st13{fill:#A07F53;}
	.st14{fill:#826543;}
	.st15{fill:#A14359;}
	.st16{fill:none;stroke:#006062;stroke-width:2.66;stroke-miterlimit:10;}
	.st17{fill:#493933;}
</style><polygon class="st0" points="763,313.6 766,374.6 651,417.6 658.2,373.1 "/><g id="Calque_1-2"><g><polygon class="st1" points="472.8,338.6 241.7,355.3 240.8,336.9 346,306.6 459.4,306.5 		"/><g><polygon class="st1" points="240.9,347 197.6,375.8 193.2,369.3 238.8,339 			"/><polygon class="st1" points="247.3,356.1 209.3,381.4 204.9,374.8 244.9,348.3 			"/><polyline class="st1" points="184.3,355.8 190.9,365.9 234.5,336.9 227.9,326.9 185.5,355 			"/><polygon class="st1" points="181.1,347 175.5,336 238.4,322.2 238.1,326.5 			"/><polygon class="st1" points="239.4,322.6 205.5,331 222.9,366.3 246.6,356.9 251.6,337.4 			"/><polygon class="st1" points="225.4,323.1 205.6,316 197.1,325.6 			"/></g></g><g><g><g><g><path d="m303.8 344.7c-4.6 4.2-2.8 13.6 4 21s16 9.9 20.6 5.6s2.8-13.6-4-21c-6.8-7.3-16-9.8-20.6-5.6"/><path d="m281.2 326.6c-4.6 4.2-2.8 13.6 4 21s16 9.9 20.6 5.6s2.8-13.6-4-21c-6.8-7.3-16-9.8-20.6-5.6"/></g><g><path d="m176.7 351.5c4.6 4.2 2.8 13.6-4 21s-16 9.9-20.6 5.6s-2.8-13.6 4-21c6.8-7.3 16-9.8 20.6-5.6"/><path d="m199.4 333.4c4.6 4.2 2.8 13.6-4 21s-16 9.9-20.6 5.6s-2.8-13.6 4-21c6.8-7.3 16-9.8 20.6-5.6"/></g><g><path d="m302.5 298c0 4.4 3.5 7.9 7.9 7.9s7.9-3.5 7.9-7.9c0-4.4-3.5-7.9-7.9-7.9c-4.3 0-7.9 3.5-7.9 7.9"/><path d="m295.8 307.1c0 4.4 3.5 7.9 7.9 7.9c4.4 0 7.9-3.5 7.9-7.9c0-4.4-3.5-7.9-7.9-7.9s-7.9 3.5-7.9 7.9"/><path d="m286.7 313.9c0 4.4 3.5 7.9 7.9 7.9c4.4 0 7.9-3.5 7.9-7.9c0-4.4-3.5-7.9-7.9-7.9c-4.4-.1-7.9 3.5-7.9 7.9"/><path d="m283 186.5c0 6.6 5.3 11.9 11.9 11.9c6.6 0 11.9-5.3 11.9-11.9c0-6.6-5.4-11.9-11.9-11.9s-11.9 5.3-11.9 11.9"/><path d="m287.5 193.3c0 6.6 5.3 11.9 11.9 11.9c6.6 0 11.9-5.3 11.9-11.9s-5.4-11.9-11.9-11.9s-11.9 5.3-11.9 11.9"/><path d="m294.3 202.4c0 6.6 5.3 11.9 11.9 11.9c6.6 0 11.9-5.3 11.9-11.9c0-6.6-5.4-11.9-11.9-11.9s-11.9 5.3-11.9 11.9"/><path d="m301.1 216c0 6.6 5.3 11.9 11.9 11.9c6.6 0 11.9-5.3 11.9-11.9c0-6.6-5.4-11.9-11.9-11.9s-11.9 5.3-11.9 11.9"/><path d="m307.1 227.7c0 5.6 4.5 10.1 10.1 10.1s10.1-4.5 10.1-10.1s-4.5-10.1-10.1-10.1s-10.1 4.5-10.1 10.1"/><path d="m309.3 239c0 5.6 4.5 10.1 10.1 10.1s10.1-4.5 10.1-10.1s-4.5-10.1-10.1-10.1s-10.1 4.6-10.1 10.1"/><path d="m309.3 250.3c0 5.6 4.5 10.1 10.1 10.1s10.1-4.5 10.1-10.1s-4.5-10.1-10.1-10.1s-10.1 4.6-10.1 10.1"/><path d="m309.3 263.9c0 5.6 4.5 10.1 10.1 10.1s10.1-4.5 10.1-10.1s-4.5-10.1-10.1-10.1s-10.1 4.6-10.1 10.1"/><path d="m311.6 275.4c0 4.4 3.5 7.9 7.9 7.9c4.4 0 7.9-3.5 7.9-7.9c0-4.4-3.5-7.9-7.9-7.9c-4.4-.1-7.9 3.5-7.9 7.9"/><path d="m309.3 282.1c0 4.4 3.5 7.9 7.9 7.9c4.4 0 7.9-3.5 7.9-7.9c0-4.4-3.5-7.9-7.9-7.9c-4.3 0-7.9 3.6-7.9 7.9"/><path d="m307.1 288.9c0 4.4 3.5 7.9 7.9 7.9c4.4 0 7.9-3.5 7.9-7.9c0-4.4-3.5-7.9-7.9-7.9c-4.4 0-7.9 3.6-7.9 7.9"/><path d="m269.4 177.5c0 6.6 5.3 11.9 11.9 11.9c6.6 0 11.9-5.3 11.9-11.9s-5.4-11.9-11.9-11.9s-11.9 5.3-11.9 11.9"/><path d="m255.9 170.7c0 6.6 5.3 11.9 11.9 11.9c6.6 0 11.9-5.3 11.9-11.9c0-6.6-5.4-11.9-11.9-11.9s-11.9 5.3-11.9 11.9"/><path d="m240 166.2c0 6.6 5.3 11.9 11.9 11.9c6.6 0 11.9-5.3 11.9-11.9c0-6.6-5.4-11.9-11.9-11.9s-11.9 5.3-11.9 11.9"/><path d="m228.7 163.9c0 6.6 5.3 11.9 11.9 11.9c6.6 0 11.9-5.3 11.9-11.9c0-6.6-5.4-11.9-11.9-11.9s-11.9 5.3-11.9 11.9"/></g><path d="m175.7 298c0 4.4-3.6 7.9-7.9 7.9s-7.9-3.5-7.9-7.9s3.6-7.9 7.9-7.9s7.9 3.5 7.9 7.9"/><path d="m182.5 307.1c0 4.4-3.6 7.9-7.9 7.9s-7.9-3.5-7.9-7.9s3.6-7.9 7.9-7.9s7.9 3.5 7.9 7.9"/><path d="m191.6 313.9c0 4.4-3.6 7.9-7.9 7.9s-7.9-3.5-7.9-7.9s3.6-7.9 7.9-7.9s7.9 3.5 7.9 7.9"/><path d="m195.3 186.5c0 6.6-5.3 11.9-11.9 11.9s-11.9-5.3-11.9-11.9s5.4-11.9 11.9-11.9s11.9 5.3 11.9 11.9"/><path d="m190.8 193.3c0 6.6-5.3 11.9-11.9 11.9s-11.9-5.3-11.9-11.9s5.4-11.9 11.9-11.9s11.9 5.3 11.9 11.9"/><path d="m183.9 202.4c0 6.6-5.3 11.9-11.9 11.9s-11.9-5.3-11.9-11.9s5.4-11.9 11.9-11.9s11.9 5.3 11.9 11.9"/><path d="m196.9 222.4c0 6.6-5.3 11.9-11.9 11.9s-11.9-5.3-11.9-11.9s5.4-11.9 11.9-11.9s11.9 5.3 11.9 11.9"/><path d="m233.9 218.4c0 6.6-5.3 11.9-11.9 11.9s-11.9-5.3-11.9-11.9s5.4-11.9 11.9-11.9s11.9 5.3 11.9 11.9"/><path d="m245.9 227.4c0 6.6-5.3 11.9-11.9 11.9s-11.9-5.3-11.9-11.9s5.4-11.9 11.9-11.9s11.9 5.3 11.9 11.9"/><path d="m177.2 216c0 6.6-5.3 11.9-11.9 11.9s-11.9-5.3-11.9-11.9s5.4-11.9 11.9-11.9s11.9 5.3 11.9 11.9"/><path d="m168.9 227.7c0 5.6-4.5 10.1-10.1 10.1s-10.1-4.5-10.1-10.1s4.5-10.1 10.1-10.1s10.1 4.5 10.1 10.1"/><path d="m168.9 239c0 5.6-4.5 10.1-10.1 10.1s-10.1-4.5-10.1-10.1s4.5-10.1 10.1-10.1s10.1 4.6 10.1 10.1"/><path d="m168.9 250.3c0 5.6-4.5 10.1-10.1 10.1s-10.1-4.5-10.1-10.1s4.5-10.1 10.1-10.1s10.1 4.6 10.1 10.1"/><path d="m168.9 263.9c0 5.6-4.5 10.1-10.1 10.1s-10.1-4.5-10.1-10.1s4.5-10.1 10.1-10.1s10.1 4.6 10.1 10.1"/><path d="m166.7 275.4c0 4.4-3.6 7.9-7.9 7.9s-7.9-3.5-7.9-7.9s3.6-7.9 7.9-7.9s7.9 3.5 7.9 7.9"/><path d="m168.9 282.1c0 4.4-3.6 7.9-7.9 7.9s-7.9-3.5-7.9-7.9s3.6-7.9 7.9-7.9s7.9 3.6 7.9 7.9"/><path d="m171.2 288.9c0 4.4-3.6 7.9-7.9 7.9s-7.9-3.5-7.9-7.9s3.6-7.9 7.9-7.9s7.9 3.6 7.9 7.9"/><path d="m208.8 177.5c0 6.6-5.3 11.9-11.9 11.9s-11.9-5.3-11.9-11.9s5.4-11.9 11.9-11.9s11.9 5.3 11.9 11.9"/><path d="m222.4 170.7c0 6.6-5.3 11.9-11.9 11.9s-11.9-5.3-11.9-11.9s5.4-11.9 11.9-11.9s11.9 5.3 11.9 11.9"/><path d="m238.3 166.2c0 6.6-5.3 11.9-11.9 11.9s-11.9-5.3-11.9-11.9s5.4-11.9 11.9-11.9s11.9 5.3 11.9 11.9"/><path d="m249.6 166.2c0 6.6-5.3 11.9-11.9 11.9s-11.9-5.3-11.9-11.9s5.4-11.9 11.9-11.9s11.9 5.3 11.9 11.9"/><polyline class="st2" points="199.3,327.5 148.6,369.3 311.1,364.7 291.8,321.6 				"/><polygon class="st3" points="179.6,361.2 127.1,372.7 169,643.2 319.5,643.2 357,370.3 312.1,361.2 				"/><polygon class="st4" points="204.9,361.2 280.6,361.2 275.1,377.7 207.5,378.8 201,361.2 				"/><ellipse class="st2" cx="239.6" cy="247.7" rx="89.7" ry="92.9"/><polygon class="st5" points="210.7,388 244.9,432.6 272.1,389.1 276.8,323.9 205.9,323.9 				"/><polygon class="st6" points="276,324.6 207,327.6 244,417.6 273.7,369.8 274.5,359 				"/><polygon class="st7" points="305.9,215.5 173.3,215.5 177.3,297.5 228,348.2 251.1,348.2 301.9,297.5 				"/><path class="st2" d="m305 259.6c-8.6-5.3-21.1-11.7-37-16c-14.1-3.8-26.6-4.9-36-5c-5.2-13.7-10.5-27.4-15.7-41l93.5 4.8l-4.8 57.2z"/><path class="st2" d="m200 233.6l-14.1 1.4l-15.9-27l41.8-15.9c-3.8 5.9-8.7 15.2-10.9 27.4c-.8 5.3-1 10.1-.9 14.1z"/><polygon class="st8" points="280.6,361.2 241.4,545.8 201,361.2 244.4,417.7 				"/><polygon class="st2" points="298.3,213.7 321.3,257.4 314.5,202.5 				"/><path class="st8" d="m286.2 264l-2.9 6.1l-4.7 3.1l-4.1.2l-2.3.1l-3.2.1l-2.3.1h-1l-4-1l-5.3-1.4l1.9-3.8s2.5-7.5 10-7.5c3.9 0 17.9 4 17.9 4z"/><path class="st8" d="m193.8 264l2.9 6.1l4.7 3.1l4.1.2l2.3.1l3.2.1l2.3.1h1l4-1l5.3-1.4l-1.9-3.8s-2.5-7.5-10.1-7.5c-3.8 0-17.8 4-17.8 4z"/><path class="st9" d="m200.5 267c-.2 2.4.4 4.6 1.7 6.3l3.6.1l2 .1c.3.1.7.2 1.1.2c.6.1 1.2 0 1.8-.1l2 .1h.9l2.9-.5c.7-1.1 1.9-3.1 2-4.5c.2-1.6-.1-3.2-.7-4.5c-.4-.7-1.6-3.5-4.6-4.2c-4.4-1.1-8.3.9-8.6 1.1l-1.8.6c-1.3 1.5-2.1 3.3-2.3 5.3z"/><circle class="st2" cx="209.2" cy="267.5" r="5"/><path class="st9" d="m279.5 267c.2 2.4-.4 4.6-1.7 6.3l-3.6.1l-2 .1c-.3.1-.7.2-1.1.2c-.6.1-1.2 0-1.8-.1l-2 .1h-.9l-2.9-.5c-.7-1.1-1.9-3.1-2-4.5c-.2-1.6.1-3.2.7-4.5c.4-.7 1.6-3.5 4.6-4.2c4.4-1.1 8.3.9 8.6 1.1l1.8.6c1.3 1.5 2.1 3.3 2.3 5.3z"/><circle class="st2" cx="270.8" cy="267.5" r="5"/></g><g><polygon class="st10" points="101.3,325.3 26.6,104.1 44.5,99.9 133.3,306.2 				"/><polygon class="st3" points="127.2,261.1 73.5,266.1 133.1,404.3 149.5,386.1 				"/><polygon class="st3" points="199,361.6 120,262.6 139.9,399.3 				"/></g></g><polygon class="st3" points="352,370.6 343,431.6 458,474.6 450.9,430.1 		"/><polygon class="st10" points="449.7,435.6 482.2,453.2 485.1,478.7 455.5,469.3 		"/><path class="st8" d="m261.9 305.6H215s5.4 19.8 25.2 19.8s21.7-19.8 21.7-19.8z"/></g><polygon class="st1" points="945.8,317.2 851,315.3 776.8,314.6 718,318.6 723.9,283.3 774.6,285.5 834.1,281.3 908.3,297.9 
		950.3,303.8 	"/><g><polygon class="st8" points="513.6,306.2 461,317.7 503,588.2 653.5,588.2 691,315.3 646.1,306.2 		"/><polygon class="st8" points="614.6,306.2 575.4,490.8 535,306.2 578.4,362.7 		"/></g><polygon class="st8" points="747,276.6 774.3,305.9 646.4,378.1 643.3,353.8 	"/><polygon class="st8" points="616.8,305.3 747,276.6 643.7,370 	"/><polygon class="st1" points="605.6,324.6 569.6,371.5 541.1,325.8 536.1,258.4 610.6,258.4 	"/><polygon class="st11" points="608,293.1 538.9,292.6 577.3,371.5 605.8,325.8 	"/><path class="st1" d="m503.8 172c4.1-4.4 29.1-30.1 69.5-30.1c40.5 0 65.5 25.7 69.6 30.1v86l-57.4 57.4h-24.2L503.8 258v-86z"/><g><path class="st8" d="m620.7 225l-2.9 6.1l-4.7 3.1l-4.1.2l-2.3.1l-3.2.1l-2.3.1l-1 .1l-4-1l-5.3-1.4l1.9-3.8s2.5-7.5 10-7.5c3.8-.1 17.9 3.9 17.9 3.9z"/><path class="st8" d="m528.2 225l2.9 6.1l4.7 3.1l4.1.2l2.3.1l3.2.1l2.3.1l1 .1l4-1l5.3-1.4l-1.9-3.8s-2.5-7.5-10-7.5c-3.9-.1-17.9 3.9-17.9 3.9z"/><path class="st9" d="m534.9 228c-.2 2.4.4 4.6 1.7 6.3l3.6.1l2 .1c.3.1.7.2 1.1.2c.6.1 1.2 0 1.8-.1l2 .1h.9l2.9-.5c.7-1.1 1.9-3.1 2-4.5c.2-1.6-.1-3.2-.7-4.6c-.4-.7-1.6-3.5-4.6-4.2c-4.4-1.1-8.3.9-8.6 1.1l-1.8.6c-1.2 1.6-2.1 3.4-2.3 5.4z"/><circle class="st2" cx="543.7" cy="228.5" r="5"/><path class="st9" d="m613.9 228c.2 2.4-.4 4.6-1.7 6.3l-3.6.1l-2 .1c-.3.1-.7.2-1.1.2c-.6.1-1.2 0-1.8-.1l-2 .1h-.9l-2.9-.5c-.7-1.1-1.9-3.1-2-4.5c-.2-1.6.1-3.2.7-4.6c.4-.7 1.6-3.5 4.6-4.2c4.4-1.1 8.3.9 8.6 1.1l1.8.6c1.3 1.6 2.1 3.4 2.3 5.4z"/><circle class="st2" cx="605.2" cy="228.5" r="5"/><path class="st8" d="m598.8 269.8H552s5.4 19.8 25.2 19.8s21.6-19.8 21.6-19.8z"/></g><path class="st12" d="m653.6 216.4c3.6 8.6-17.8 69.1-12.3 33.9c7.7-48.7-26.7-50.1-78.6-60.4c-27.5-24.5-63 2.6-58.8 32.7c-1 8.8 8.5 53.9-1 34C432 108 661 52.7 653.6 216.4z"/><polygon class="st12" points="548.8,131.9 555.5,95.5 584.2,81.1 630.4,89.7 669.7,127.6 685.8,186.9 693.7,229.7 692.5,260.5 
		676.3,295.7 674,260.6 660.5,324.5 645.2,358.6 650,318.6 649.4,293.1 639.6,335 616.4,386.6 620,338.6 617,298.9 614.7,228.3 
		581.7,166.6 558.8,160.6 	"/><polygon class="st12" points="616.7,292 611,333.6 609,347.6 616,333.6 622,307.6 	"/><polygon class="st8" points="420,292.6 376,302.6 500.4,376.8 504,352.5 	"/><polygon class="st8" points="531.6,304.7 420,292.6 503.3,368.8 	"/><g><polygon class="st1" points="948.6,313.9 997.1,332.8 999.9,325.6 949,305.6 		"/><polygon class="st1" points="944.2,324 986.8,340.7 989.6,333.4 944.9,315.9 		"/><polyline class="st1" points="1005.8,310.5 1001.4,321.7 952.7,302.6 957.1,291.4 1004.5,310 		"/><polygon class="st1" points="1007.1,301.2 1010.2,289.2 945.8,289.1 947,293.2 		"/><polygon class="st1" points="944.9,289.7 979.8,290.7 970.2,328.9 945.1,324.7 936.1,306.6 		"/><polygon class="st1" points="958.8,287.2 976.6,276 987,283.7 		"/></g><g><g><g><g><path d="m930.7 195.2c0 51.3-40.2 92.9-89.7 92.9c-49.5 0-89.7-41.6-89.7-92.9s40.2-92.9 89.7-92.9c49.5 0 89.7 41.6 89.7 92.9"/><polygon class="st0" points="782,584.5 910.6,584.5 942,303.4 761.1,313.6 					"/><polygon class="st13" points="808.9,313.1 844.9,359.9 873.4,314.2 878.3,246.9 803.9,246.9 					"/><polygon class="st14" points="875.6,281.6 806.5,281.1 844.9,359.9 873.4,314.2 					"/><g><path class="st13" d="m910.6 160.5c-4.1-4.4-29.1-30.1-69.5-30.1c-40.5 0-65.5 25.7-69.6 30.1v86.1l57.4 57.4h24.2l57.4-57.4l.1-86.1z"/><path class="st15" d="m863.9 265c-4.7 0-14.4-6.6-22.8-6.8c-8.5.2-18.8 6.9-22.8 6.8c-.2 0-.2.3 0 .3c1.8 1.5 14.3 9.8 22.8 9.9c8.5-.2 21-8.5 22.8-9.9c.2 0 .2-.3 0-.3"/></g><g><path d="m887.5 138.2c0 13.5-10.9 24.4-24.4 24.4s-24.4-10.9-24.4-24.4s10.9-24.4 24.4-24.4s24.4 10.9 24.4 24.4"/><path d="m918.3 157.1c0 13.5-10.9 24.4-24.4 24.4s-24.4-10.9-24.4-24.4c0-13.5 10.9-24.4 24.4-24.4s24.4 10.9 24.4 24.4"/><path d="m930.3 187.3c0 12.1-9.8 21.9-21.9 21.9c-12.1 0-21.9-9.8-21.9-21.9s9.8-21.9 21.9-21.9c12.1 0 21.9 9.8 21.9 21.9"/><path d="m899.6 212.9c0 7.9 6.4 14.3 14.3 14.3c7.9 0 14.3-6.4 14.3-14.3c0-7.9-6.4-14.3-14.3-14.3s-14.3 6.4-14.3 14.3"/><path d="m794.6 138.2c0 13.5 10.9 24.4 24.4 24.4s24.4-10.9 24.4-24.4s-10.9-24.4-24.4-24.4s-24.4 10.9-24.4 24.4"/><path d="m763.8 157.1c0 13.5 10.9 24.4 24.4 24.4s24.4-10.9 24.4-24.4c0-13.5-10.9-24.4-24.4-24.4s-24.4 10.9-24.4 24.4"/><path d="m751.7 187.3c0 12.1 9.8 21.9 21.9 21.9s21.9-9.8 21.9-21.9s-9.8-21.9-21.9-21.9c-12.1 0-21.9 9.8-21.9 21.9"/><path d="m782.4 212.9c0 7.9-6.4 14.3-14.3 14.3c-7.9 0-14.3-6.4-14.3-14.3c0-7.9 6.4-14.3 14.3-14.3s14.3 6.4 14.3 14.3"/><path class="st16" d="m910.6 247.9c-5.8 0-10.5 5.8-10.5 12.9c0 7.1 4.7 12.9 10.5 12.9s10.5-5.8 10.5-12.9c-.1-7.2-4.8-12.9-10.5-12.9zm-139 0c-5.8 0-10.5 5.8-10.5 12.9c0 7.1 4.7 12.9 10.5 12.9c5.8 0 10.5-5.8 10.5-12.9c0-7.2-4.7-12.9-10.5-12.9z"/></g><polygon class="st8" points="960.1,344.3 900.7,295.9 956.8,283.7 					"/><g><polygon class="st8" points="885.3,211.5 880.3,220.6 878.4,220.6 875,220.7 873.1,220.7 870.5,220.7 868.6,220.7 
							867.8,220.7 864.5,219.7 860.2,218.2 862.2,212.2 864.2,211.8 867.3,211.2 868.8,210.9 872.8,210.1 874.3,209.8 876.5,209.3 
							878.2,210 						"/><g><path class="st17" d="m880.2 214.9c.1 2.2-.5 4.2-1.8 5.8h-5.3c-.3.1-.7.1-1 .2c-.6 0-1.1 0-1.6-.1h-2.7l-3.3-1.1c-.6-1.1-1-2.3-1.1-3.7c-.1-1.5.2-2.9.8-4.2l3.1-.6l1.5-.3c.8-.5 1.7-.8 2.6-.9c.5 0 .9 0 1.4.1l1.5-.3l2.2-.4l1.6.5c1.2 1.4 1.9 3.1 2.1 5"/><path d="m877.2 215.1c.2 2.6-1.6 5-4.1 5.6c-.3.1-.6.1-1 .2c-.6 0-1.1 0-1.6-.1c-2.2-.5-4-2.5-4.1-4.9c-.1-2 .8-3.9 2.4-4.9c.8-.5 1.7-.8 2.6-.9c.5 0 1 0 1.4.1c2.4.4 4.2 2.4 4.4 4.9"/><path class="st8" d="m875.6 215.6c-.4-1.8 1.1-3.5 2.9-3.3c1.2.1 2.2 1 2.4 2.1c.4 1.8-1.1 3.5-2.9 3.3c-1.1-.1-2.1-1-2.4-2.1"/></g><polygon class="st8" points="796.7,212.2 800.8,220.5 802.8,220.5 806.1,220.7 808,220.8 810.6,220.9 812.5,220.9 813.3,221 
							816.6,220 821,218.7 819.2,212.6 817.2,212.2 814.1,211.5 812.7,211.1 808.7,210.2 807.2,209.8 805,209.3 803.3,209.9 						
							"/><path class="st17" d="m801.2 214.7c-.2 2.2.4 4.2 1.6 5.8l3.4.1l1.9.1c.3.1.6.2 1 .2c.6.1 1.1 0 1.6-.1l1.9.1h.8l3.3-1c.7-1.1 1.1-2.3 1.2-3.6c.1-1.5-.1-2.9-.7-4.2l-3.1-.7l-1.5-.3c-.7-.5-1.6-.9-2.6-1c-.5-.1-1 0-1.4 0l-1.5-.3l-2.2-.5l-1.6.6c-1.2 1.3-2 2.9-2.1 4.8"/><path d="m804.1 215c-.3 2.6 1.4 5 3.9 5.7c.3.1.6.2 1 .2c.6.1 1.1 0 1.6-.1c2.3-.5 4.1-2.4 4.3-4.8c.2-2-.7-3.9-2.3-5c-.7-.5-1.6-.9-2.6-1c-.5-.1-.9 0-1.4 0c-2.3.6-4.2 2.5-4.5 5"/><path class="st8" d="m805.7 215.5c.5-1.8-1-3.5-2.8-3.4c-1.2.1-2.2.9-2.5 2c-.5 1.8 1 3.5 2.8 3.4c1.1 0 2.2-.8 2.5-2"/></g></g><g><path class="st15" d="m841 149l73.5-7.9s6.1 10 12 25c4.5 11.3 4 22 4 22L841 170.2"/><path class="st15" d="m840 149l-73.5-7.9s-6.1 10-12 25c-4.5 11.3-4 22-4 22l89.5-17.9"/><rect x="839.5" y="149.1" class="st15" width="2" height="21"/></g></g><polygon class="st0" points="990,259.6 931.6,396.2 875.6,310.8 905.9,277.9 			"/><g><polygon class="st13" points="986.9,222.8 1081.9,54.7 1066.3,46.1 960.6,197.5 				"/><polygon class="st0" points="900.3,283 989.8,259.4 1036.6,151.6 994.6,137.6 				"/></g></g><polyline class="st13" points="1061.3,55.7 1046.7,23.4 1057.6,3.5 1066.1,8.4 1080.4,0 1096,13.6 1108.6,34.5 1081.4,59.3 		"/></g><g><g><polygon class="st10" points="22.5,93 10.5,41.5 18.2,39.7 30.9,93.8 			"/><polygon class="st10" points="11.6,95.9 0,56.6 6,55.6 19.9,96.4 			"/><polyline class="st10" points="34.2,36 22.3,38.8 34.4,90.5 46.3,87.7 34.5,37.4 			"/><polygon class="st10" points="48,34.6 56.2,34.6 47,99.4 43.1,97.7 			"/><polygon class="st10" points="46.2,100.2 50.3,65 10.6,69.1 11.1,95 28,106.6 			"/><polygon class="st10" points="50.8,86.7 64.6,70.4 58.5,58.8 			"/></g><g><polygon class="st10" points="22.5,93 10.5,41.5 18.2,39.7 30.9,93.8 			"/><polygon class="st10" points="11.6,95.9 0,56.6 6,55.6 19.9,96.4 			"/><polyline class="st10" points="34.2,36 22.3,38.8 34.4,90.5 46.3,87.7 34.5,37.4 			"/><polygon class="st10" points="48,34.6 56.2,34.6 47,99.4 43.1,97.7 			"/><polygon class="st10" points="46.2,100.2 50.3,65 10.6,69.1 11.1,95 28,106.6 			"/><polygon class="st10" points="50.8,86.7 64.6,70.4 58.5,58.8 			"/></g></g></g></svg>