<?xml version="1.0" encoding="UTF-8"?><svg id="Calque_2" xmlns="http://www.w3.org/2000/svg" viewBox="0 0 562.37 665.11"><defs><style>.cls-1,.cls-2{fill:#fff;}.cls-2,.cls-3{stroke:#000;stroke-miterlimit:10;stroke-width:16.22px;}.cls-3{fill:none;}</style></defs><g id="nageuse"><rect x="32.44" y="643.48" width="373.11" height="21.63"/><polygon points="43.26 416.37 394.74 416.37 373.11 632.67 64.89 632.67 43.26 416.37"/><polyline points="219 405.56 405.56 405.56 389.33 584 438 550.92 438 508.3 410.96 394.74 389.33 373.11 308.22 346.07 340.67 264.96 335.26 140.59 281.19 70.3 219 60.31 156.81 70.3 102.74 140.59 97.33 264.96 129.78 346.07 48.67 373.11 27.04 394.74 0 508.3 0 550.92 48.67 584 32.44 405.56 219 405.56"/><polyline class="cls-1" points="219 337.96 197.37 337.96 132.48 246.04 137.89 143.3 170.33 116.26 267.67 116.26 300.11 143.3 305.52 246.04 240.63 337.96 219 337.96"/><polygon points="235.22 229.81 278.48 251.44 289.3 213.59 235.22 229.81"/><polyline points="148.7 213.59 202.78 229.81 159.52 251.44"/><polyline class="cls-3" points="173.04 297.41 202.78 277.43 219 288.63 235.22 277.43 264.96 297.41"/><path class="cls-2" d="m373.11 148.7h-80.46c-7.83 0-14.17-6.34-14.17-14.17V22.28c0-7.83 6.34-14.17 14.17-14.17h247.44c7.83 0 14.17 6.34 14.17 14.17v112.26c0 7.83-6.34 14.17-14.17 14.17H440.7l-64.89 59.48v-56.78l-2.7-2.7z"/><g><path d="m298.59 66.87c0-3.22 1.05-5.82 3.15-7.79s4.91-2.97 8.44-2.97s6.4.98 8.47 2.95c2.07 1.97 3.11 4.63 3.11 7.99v2.57c0 3.22-1.04 5.8-3.11 7.76c-2.07 1.95-4.87 2.93-8.4 2.93s-6.32-.97-8.46-2.91c-2.13-1.94-3.2-4.61-3.2-7.99v-2.54zm7.76 2.74c0 1.23.35 2.23 1.04 3c.69.77 1.64 1.15 2.86 1.15c2.5 0 3.75-1.59 3.75-4.76v-2.13c0-1.23-.33-2.24-1-3.04c-.67-.8-1.61-1.19-2.82-1.19s-2.1.38-2.79 1.16c-.69.77-1.04 1.82-1.04 3.14v2.66zm6.19 35.41l-5.61-2.82l25.42-40.69l5.61 2.82l-25.42 40.69zm10.8-8.87c0-3.24 1.05-5.84 3.16-7.79s4.92-2.93 8.42-2.93s6.38.97 8.47 2.9s3.15 4.62 3.15 8.08v2.5c0 3.24-1.04 5.84-3.11 7.79s-4.89 2.93-8.44 2.93s-6.32-.97-8.46-2.91c-2.13-1.94-3.2-4.61-3.2-7.99v-2.57zm7.72 2.74c0 1.11.38 2.09 1.14 2.93s1.69 1.26 2.79 1.26c2.31 0 3.56-1.09 3.75-3.27l.04-3.66c0-1.25-.35-2.27-1.04-3.04c-.69-.77-1.63-1.16-2.82-1.16s-2.06.36-2.75 1.08c-.69.72-1.06 1.7-1.11 2.93v2.91z"/><path d="m389.84 94.26h-5.76l-2.4 14.66h-7.12l2.4-14.66h-7.94v-6.54h9.01l1.57-9.44h-7.9v-6.54h8.97l2.47-14.87h7.08l-2.43 14.87h5.76l2.47-14.87h7.12l-2.47 14.87h8.26v6.54h-9.33l-1.57 9.44h8.19v6.54h-9.26l-2.4 14.66h-7.12l2.4-14.66zm-4.68-6.54h5.76l1.57-9.44h-5.76l-1.57 9.44z"/><path d="m455.91 95.11c0-1.88-.46-3.36-1.39-4.43s-2.56-2.09-4.9-3.04s-4.49-1.92-6.47-2.9s-3.68-2.11-5.11-3.4c-1.43-1.29-2.53-2.78-3.29-4.47s-1.14-3.74-1.14-6.15c0-4.03 1.36-7.35 4.08-9.96c2.72-2.61 6.34-4.13 10.87-4.56v-7.54h5.69v7.69c4.36.64 7.79 2.44 10.28 5.38c2.49 2.94 3.74 6.68 3.74 11.21h-12.09c0-2.48-.48-4.39-1.43-5.72c-.95-1.33-2.31-2-4.08-2c-1.57 0-2.79.49-3.67 1.48s-1.31 2.35-1.31 4.09s.5 3.16 1.5 4.2s2.61 2.03 4.83 2.97s4.31 1.92 6.28 2.93c1.97 1.01 3.67 2.16 5.1 3.45c1.43 1.29 2.55 2.79 3.36 4.51s1.22 3.78 1.22 6.19c0 4.08-1.29 7.4-3.88 9.98c-2.59 2.57-6.11 4.08-10.57 4.51v7.19h-5.69v-7.22c-5.2-.55-9.18-2.33-11.96-5.35c-2.78-3.02-4.17-6.99-4.17-11.92h12.05c0 2.72.6 4.79 1.81 6.2c1.2 1.42 2.91 2.13 5.13 2.13c1.62 0 2.9-.48 3.83-1.45s1.39-2.29 1.39-3.99z"/><path d="m493.06 103.52c0-1.76.64-3.21 1.91-4.34s2.87-1.7 4.77-1.7s3.5.57 4.77 1.7s1.91 2.58 1.91 4.34s-.64 3.21-1.91 4.34s-2.87 1.7-4.77 1.7s-3.5-.57-4.77-1.7s-1.91-2.58-1.91-4.34zm11.66-11.08h-9.76l-1.54-35.58h12.84l-1.54 35.58z"/><path d="m513.27 103.52c0-1.76.64-3.21 1.91-4.34s2.87-1.7 4.77-1.7s3.5.57 4.77 1.7s1.91 2.58 1.91 4.34s-.64 3.21-1.91 4.34s-2.87 1.7-4.77 1.7s-3.5-.57-4.77-1.7s-1.91-2.58-1.91-4.34zm11.66-11.08h-9.76l-1.54-35.58h12.84l-1.54 35.58z"/></g></g></svg>