<?xml version="1.0" encoding="UTF-8"?><svg id="Calque_2" xmlns="http://www.w3.org/2000/svg" viewBox="0 0 520.76 557.4"><defs><style>.cls-1{fill:#034f6d;}.cls-2{fill:#fff;}.cls-3{fill:#826543;}.cls-4{fill:#a07f53;}.cls-5{fill:#a14359;}.cls-6{fill:#493933;}.cls-7{fill:none;stroke:#006062;stroke-miterlimit:10;stroke-width:2.66px;}</style></defs><g id="Calque_1-2"><g><g><g><g><path d="m234.07 168.11c0 51.31 40.15 92.91 89.68 92.91c49.53 0 89.68-41.6 89.68-92.91S373.28 75.2 323.75 75.2c-49.53 0-89.68 41.6-89.68 92.91"/><polygon class="cls-1" points="382.71 557.4 254.13 557.4 222.78 276.31 403.68 286.5 382.71 557.4"/><polygon class="cls-4" points="355.88 285.97 319.89 332.85 291.39 287.15 286.46 219.78 360.87 219.78 355.88 285.97"/><polygon class="cls-3" points="289.2 254.51 358.29 254 319.9 332.85 291.4 287.16 289.2 254.51"/><g><path class="cls-4" d="m254.13 133.39c4.1-4.36 29.06-30.07 69.47-30.09c40.48-.03 65.51 25.74 69.59 30.09v86.06l-57.41 57.41h-24.23l-57.41-57.41v-86.06z"/><path class="cls-5" d="m300.85 237.94c4.73 0 14.36-6.57 22.82-6.75c8.46.18 18.83 6.88 22.82 6.75c.22-.05.22.32 0 .27c-1.78 1.49-14.35 9.75-22.82 9.94c-8.46-.18-21.03-8.45-22.82-9.94c-.22.05-.22-.32 0-.27"/></g><g><path d="m277.3 111.12c0 13.49 10.93 24.42 24.42 24.42c13.49 0 24.43-10.93 24.43-24.42S315.21 86.7 301.72 86.7c-13.49 0-24.42 10.93-24.42 24.42"/><path d="m246.49 130.05c0 13.49 10.93 24.42 24.42 24.42c13.49 0 24.43-10.93 24.43-24.42c0-13.49-10.94-24.42-24.43-24.42c-13.49 0-24.42 10.93-24.42 24.42"/><path d="m234.44 160.18c0 12.08 9.79 21.88 21.87 21.88c12.09 0 21.88-9.8 21.88-21.88c0-12.08-9.79-21.88-21.88-21.88s-21.87 9.8-21.87 21.88"/><path d="m265.16 185.78c0 7.9-6.4 14.3-14.3 14.3c-7.9 0-14.31-6.4-14.31-14.3c0-7.9 6.41-14.3 14.31-14.3c7.9 0 14.3 6.4 14.3 14.3"/><path d="m370.18 111.12c0 13.49-10.93 24.42-24.42 24.42c-13.49 0-24.43-10.93-24.43-24.42c0-13.49 10.94-24.42 24.43-24.42c13.49 0 24.42 10.93 24.42 24.42"/><path d="m401 130.05c0 13.49-10.93 24.42-24.42 24.42c-13.49 0-24.43-10.93-24.43-24.42c0-13.49 10.94-24.42 24.43-24.42c13.49 0 24.42 10.93 24.42 24.42"/><path d="m413.05 160.18c0 12.08-9.79 21.88-21.88 21.88s-21.87-9.8-21.87-21.88c0-12.08 9.79-21.88 21.87-21.88c12.09 0 21.88 9.8 21.88 21.88"/><path d="m382.33 185.78c0 7.9 6.4 14.3 14.3 14.3c7.9 0 14.31-6.4 14.31-14.3c0-7.9-6.41-14.3-14.31-14.3c-7.9 0-14.3 6.4-14.3 14.3"/><path class="cls-7" d="m243.73 233.67c0 7.12 4.69 12.89 10.47 12.89c5.79 0 10.47-5.77 10.47-12.89c0-7.12-4.69-12.89-10.47-12.89c-5.78 0-10.47 5.77-10.47 12.89zm138.93 0c0 7.12 4.69 12.89 10.47 12.89c5.79 0 10.47-5.77 10.47-12.89c0-7.12-4.69-12.89-10.47-12.89c-5.79 0-10.47 5.77-10.47 12.89z"/></g><g><polygon class="cls-2" points="279.41 184.44 284.46 193.55 286.4 193.57 289.76 193.6 291.64 193.62 294.26 193.64 296.13 193.66 296.98 193.66 300.25 192.57 304.57 191.14 302.61 185.16 300.57 184.76 297.46 184.14 295.98 183.84 291.95 183.04 290.49 182.75 288.23 182.24 286.61 182.92 279.41 184.44"/><g><path class="cls-6" d="m284.61 187.81c-.14 2.16.54 4.18 1.79 5.76l3.36.03l1.88.02c.32.08.65.14.99.16c.56.04 1.11-.01 1.63-.14l1.87.02h.85l3.27-1.09c.64-1.08 1.03-2.33 1.12-3.66c.1-1.49-.2-2.91-.79-4.16l-3.11-.62l-1.49-.3c-.75-.51-1.65-.82-2.63-.89c-.48-.03-.94 0-1.4.08l-1.47-.29l-2.24-.35l-1.64.52c-1.14 1.33-1.87 3.01-1.99 4.89"/><path d="m287.58 188.01c-.18 2.65 1.58 4.98 4.06 5.61c.32.08.64.14.99.16c.56.04 1.11-.01 1.62-.14c2.25-.54 3.99-2.49 4.14-4.91c.14-2.01-.85-3.85-2.41-4.89c-.76-.51-1.65-.82-2.63-.89c-.48-.03-.95 0-1.4.09c-2.36.46-4.21 2.46-4.37 4.97"/><path class="cls-2" d="m289.13 188.49c.41-1.83-1.06-3.5-2.92-3.34c-1.17.1-2.17.98-2.42 2.12c-.41 1.82 1.06 3.5 2.92 3.34c1.17-.09 2.17-.98 2.42-2.12"/></g><polygon class="cls-2" points="368.07 185.13 363.92 193.38 361.98 193.46 358.62 193.6 356.75 193.67 354.14 193.77 352.27 193.86 351.42 193.88 348.12 192.9 343.74 191.59 345.53 185.56 347.55 185.09 350.63 184.38 352.11 184.03 356.11 183.11 357.57 182.77 359.81 182.24 361.45 182.82 368.07 185.13"/><path class="cls-6" d="m363.59 187.64c.21 2.16-.41 4.2-1.61 5.81l-3.36.14l-1.88.08c-.32.09-.64.16-.98.19c-.56.05-1.11.02-1.63-.09l-1.87.07l-.85.03l-3.3-.99c-.67-1.06-1.11-2.29-1.23-3.62c-.14-1.49.11-2.91.66-4.18l3.09-.72l1.47-.34c.74-.54 1.63-.87 2.6-.97c.48-.05.95-.03 1.4.03l1.46-.33l2.25-.52l1.64.58c1.18 1.29 1.96 2.95 2.14 4.82"/><path d="m360.64 187.94c.26 2.64-1.42 5.02-3.89 5.73c-.31.09-.64.16-.98.19c-.56.05-1.11.02-1.63-.08c-2.27-.47-4.06-2.37-4.29-4.79c-.2-2.01.73-3.87 2.27-4.96c.74-.53 1.63-.87 2.6-.97c.47-.05.94-.03 1.4.04c2.37.39 4.28 2.33 4.52 4.84"/><path class="cls-2" d="m359.1 188.46c-.46-1.82.95-3.53 2.82-3.43c1.17.07 2.2.91 2.48 2.04c.46 1.82-.95 3.53-2.82 3.43c-1.17-.06-2.2-.91-2.48-2.04"/></g></g><g><path class="cls-5" d="m323.8 121.96l-73.5-7.95s-6.06 10-12 25c-4.46 11.26-4 22-4 22l89.5-17.9"/><path class="cls-5" d="m324.8 121.96l73.5-7.95s6.06 10 12 25c4.46 11.26 4 22 4 22l-89.5-17.9"/><rect class="cls-5" x="323.3" y="122.01" width="2" height="21"/></g></g><polygon class="cls-1" points="174.76 232.56 233.13 369.11 289.2 283.69 258.87 250.86 174.76 232.56"/><g><polygon class="cls-4" points="177.9 195.68 82.88 27.67 98.41 19.02 104.23 27.35 204.2 170.37 177.9 195.68"/><polygon class="cls-1" points="264.46 255.93 174.94 232.33 128.14 124.56 170.14 110.52 264.46 255.93"/></g></g><g><polygon class="cls-4" points="395.36 539.45 346.71 546.63 345.53 539.34 396.63 531.79 395.36 539.45"/><polyline class="cls-4" points="343.09 524.23 344.54 533.21 393.76 528.24 391.94 517.01 344.44 524.03"/><polygon class="cls-4" points="343.81 515.46 343.42 507.14 402.89 517.25 400.99 520.78 343.81 515.46"/><polygon class="cls-4" points="499.56 446.97 404.26 542.12 397.68 523.36 478.51 418.86 499.56 446.97"/><polygon class="cls-4" points="397.34 549.75 354.66 556.06 353.48 548.76 398.31 542.14 397.34 549.75"/><polygon class="cls-4" points="402.89 517.25 370.12 512.56 373.35 549.56 397.48 549.73 408.54 534.41 402.89 517.25"/></g><polygon class="cls-1" points="403.68 286.5 396.35 365.65 483.76 460.56 520.76 433.56 403.68 286.5"/><polygon class="cls-4" points="90 6 31.13 6 0 0 0 13.38 35 28 82.88 27.67 104.23 27.35 90 6"/></g></g></svg>